<svg width="100" height="128" viewBox="0 0 100 128" fill="none" xmlns="http://www.w3.org/2000/svg">
<path d="M6.6 0L5.72778 4.33889C5.72778 4.33889 0 30.4889 0 44.4444C0 70.0944 19.5333 91.2778 44.4444 94.1V116.667H16.6667V127.778H83.3333V116.667H55.5556V94.0945C80.4667 91.2778 100 70.0944 100 44.4444C100 30.4667 94.2722 4.33889 94.2722 4.33889L93.4 0H6.6ZM15.8 11.1111H84.2C84.7222 13.8222 86.0444 20.6611 87.1556 27.7778H22.2222V38.8889H88.5444C88.7111 40.8222 88.8889 42.9056 88.8889 44.4444C88.8889 65.9944 71.55 83.3333 50 83.3333C28.45 83.3333 11.1111 65.9944 11.1111 44.4444C11.1111 35.0667 14.8222 16.1444 15.8 11.1111V11.1111Z" fill="white"/>
</svg>
